<?xml version="1.0" encoding="utf-8"?>
<svg width="783px" height="693px" viewBox="0 0 783 693" version="1.1" xmlns:xlink="http://www.w3.org/1999/xlink" xmlns="http://www.w3.org/2000/svg">
  <desc>Created with Lunacy</desc>
  <defs>
    <path d="M0 689.971L779.977 689.971L779.977 0L0 0L0 689.971Z" transform="translate(0 0.1318665)" id="path_1" />
    <clipPath id="mask_1">
      <use xlink:href="#path_1" />
    </clipPath>
  </defs>
  <g id="Group-197" transform="translate(1.033691 1.033508)">
    <path d="M13.3557 19.037C13.5321 16.0646 18.6725 10.0072 17.8905 9.25029C17.3252 8.706 15.3256 10.577 14.244 11.672C14.1186 11.7996 13.9295 11.8421 13.7595 11.7804C13.5916 11.7188 13.4747 11.5657 13.4598 11.385C13.2261 8.46362 12.4951 0.290682 11.6791 0.214141C10.8546 0.135473 10.4402 5.30628 10.3255 7.04335C10.3212 7.0965 10.2808 7.13902 10.2298 7.1454C10.1767 7.15178 10.1278 7.12201 10.1108 7.07099C9.47334 5.23399 7.33134 -0.695853 6.41121 0.0674361C5.53784 0.790328 6.89359 6.46929 7.45671 8.65497C7.46946 8.70812 7.44184 8.76553 7.39084 8.78467C7.33984 8.80593 7.28034 8.78467 7.25271 8.73789C6.14559 6.7797 3.22796 1.81726 2.44171 2.45085C1.63846 3.0972 3.89946 8.47637 4.73671 10.3857C4.75796 10.4346 4.74096 10.4941 4.69421 10.5239C4.64746 10.5515 4.58796 10.543 4.55184 10.5026C3.28746 9.07595 -0.0190424 5.4381 8.26161e-05 6.50543C0.0213326 7.8279 5.83109 18.8201 7.73509 20.6592C9.63697 22.5005 13.3557 19.037 13.3557 19.037" transform="translate(569.6206 2.249634)" id="Fill-7" fill="#FA968C" stroke="none" />
    <path d="M57.3968 39.8425C53.4592 48.5725 47.7918 58.4889 40.9387 65.2947C27.6064 78.4981 10.4959 75.0474 4.5247 44.1714C3.48557 39.5194 2.75882 34.8865 2.14895 30.2621C0.907949 21.0261 0.427699 11.8177 0.00269943 2.63697C-0.0610506 1.24647 1.01207 0.0685769 2.40182 0.00266609C3.65982 -0.0547401 4.74357 0.821235 4.98582 2.01826L4.99645 2.06929C6.8027 10.9821 8.61957 19.878 10.9486 28.5314C12.1471 32.8411 13.3881 37.1168 14.8352 41.2394C16.0889 45.1409 21.1294 57.2685 25.0479 58.4549C25.1776 58.4336 25.3051 58.6037 25.3794 58.5293C25.4517 58.4634 25.4878 58.457 25.5324 58.4974C25.6068 58.3996 25.6557 58.3571 25.7194 58.3698C25.9341 58.1955 26.1869 58.1657 26.6523 57.7894C27.5066 57.2281 28.6753 56.1225 29.7846 54.7448C32.0583 52.0467 34.1769 48.4832 36.0406 44.7837C39.2727 38.5094 41.1448 33.9956 41.1448 33.9956C45.1249 23.0799 61.6277 28.3082 57.6433 39.2387C57.5711 39.4364 57.4818 39.6512 57.3968 39.8425" transform="translate(577.7397 18.23505)" id="Fill-9" fill="#FA968C" stroke="none" />
    <path d="M0 24.2091C0.014875 24.1878 0.02975 24.1666 0.044625 24.1453C2.057 21.1985 3.92488 18.1177 5.64613 14.9603C7.3525 11.8774 9.09075 8.45217 10.3084 5.53934L10.3679 5.39263C10.4656 5.16088 10.574 4.93126 10.6951 4.70376C12.9583 0.402552 18.275 -1.24947 22.5739 1.01488C26.8728 3.27924 28.5239 8.601 26.2608 12.9001C24.1379 16.9355 22.083 20.2332 19.737 23.7052C18.1475 25.9972 16.4581 28.2211 14.7178 30.409C13.4215 29.0248 3.09613 25.3189 0 24.2091" transform="translate(608.6875 45.61719)" id="Fill-11" fill="#A5A0AA" stroke="none" />
    <path d="M3.68636 85.3289C11.3385 94.1142 55.5087 97.7818 55.5087 97.7818C58.7685 93.9951 54.0042 76.7903 52.8546 59.3239C51.6115 40.4394 50.8954 19.5968 50.5681 8.33452C50.4321 3.68675 46.6305 0 41.9831 0L13.9544 0C9.63211 0 6.03661 3.29979 5.67961 7.60738C4.94436 16.5245 3.66511 32.022 2.40286 47.2155C1.12148 62.6322 -2.92877 77.7343 3.68636 85.3289" transform="translate(613.6147 45.61685)" id="Fill-13" fill="#FAB9AF" stroke="none" />
    <path d="M26.999 11.1389L26.9352 28.5202L28.444 36.9866C28.7053 38.4515 27.6216 39.808 26.1341 39.8547C19.0217 40.0716 0.810491 40.5521 0.323866 39.7633C-1.96688 36.0574 8.38398 34.6308 15.9554 31.6988C23.5288 28.7647 18.3035 0 18.3035 0L26.999 11.1389Z" transform="translate(615.7832 266.6225)" id="Fill-15" fill="#FA968C" stroke="none" />
    <path d="M15.9554 0.0595322C15.9957 0.0446492 16.0319 0.0170092 16.0701 0C17.8742 0.67399 19.9057 1.06945 22.1943 1.06945C24.1578 1.06945 25.9365 0.786676 27.5408 0.282778L28.444 5.34727C28.7053 6.81431 27.6216 8.16867 26.1341 8.21544C19.0217 8.43444 0.810491 8.91495 0.323866 8.12402C-1.96688 4.41814 8.38398 2.99149 15.9554 0.0595322" transform="translate(615.7837 298.2609)" id="Fill-17" fill="#F57A2F" stroke="none" />
    <path d="M0.0112269 21.4926C-0.262898 33.5734 4.48647 110.223 13.8683 110.436C23.2481 110.649 33.7094 34.3452 33.9836 22.2644C34.2577 10.1814 26.8733 0.216141 17.4936 0.00352525C8.11172 -0.211216 0.285352 9.41176 0.0112269 21.4926" transform="translate(617.3013 115.7881)" id="Fill-19" fill="#0091C8" stroke="none" />
    <path d="M26.8244 94.5152C27.7552 101.166 27.9061 143.776 26.4101 165.42L17.8697 165.42C13.2839 144.425 8.38369 103.73 7.47206 97.2282C7.46143 97.1432 7.45506 97.0624 7.44444 96.9794C2.34231 74.3912 -0.190691 30.4032 0.0111844 21.4946C0.285309 9.41169 8.11168 -0.209158 17.4936 0.00345719C26.8733 0.218199 34.2556 10.1835 33.9814 22.2643C33.8114 29.8504 26.3846 91.3664 26.8244 94.5152" transform="translate(617.3018 115.7867)" id="Fill-21" fill="#FF965A" stroke="none" />
    <path d="M25.4257 128.313C25.6318 123.692 25.1133 119.189 23.9828 114.88C20.6338 102.093 20.5382 88.764 21.8876 75.6159C22.0002 74.5124 22.081 73.4025 22.132 72.2842C22.9033 55.0708 13.6596 39.4287 0.174353 29.5634C0.0298529 25.934 -0.025397 23.1233 0.0107279 21.4925C0.284853 9.41169 8.11335 -0.209158 17.4931 0.00345719C26.875 0.216073 34.2572 10.1835 33.9831 22.2643C33.811 29.8483 26.3841 91.3643 26.8261 94.5152C27.7568 101.164 27.9056 143.774 26.4117 165.42L17.8713 165.42C17.3337 162.956 16.7918 160.201 16.2521 157.281C21.6645 148.868 24.9518 138.899 25.4257 128.313" transform="translate(617.3008 115.7875)" id="Fill-23" fill="#F07D4B" stroke="none" />
    <path d="M26.999 11.1389L26.9352 28.5202L28.444 36.9866C28.7053 38.4515 27.6216 39.808 26.1341 39.8547C19.0217 40.0716 0.810491 40.5521 0.323866 39.7633C-1.96688 36.0574 8.38398 34.6308 15.9554 31.6988C23.5288 28.7647 18.3035 0 18.3035 0L26.999 11.1389Z" transform="translate(636.2793 266.6225)" id="Fill-25" fill="#FA968C" stroke="none" />
    <path d="M15.9554 0.0595322C15.9957 0.0446492 16.0319 0.0170092 16.0701 0C17.8742 0.67399 19.9057 1.06945 22.1943 1.06945C24.1557 1.06945 25.9365 0.786676 27.5408 0.282778L28.444 5.34727C28.7053 6.81431 27.6216 8.16867 26.1341 8.21544C19.0217 8.43444 0.810491 8.91495 0.323866 8.12402C-1.96688 4.41814 8.38398 2.99149 15.9554 0.0595322" transform="translate(636.2798 298.2609)" id="Fill-27" fill="#FF8C46" stroke="none" />
    <path d="M0.0112269 21.4926C-0.262898 33.5734 4.48647 110.223 13.8683 110.436C23.2481 110.649 31.6801 34.0645 31.9542 21.9816C32.2283 9.90077 26.8733 0.216141 17.4936 0.00352525C8.11172 -0.211216 0.285352 9.41176 0.0112269 21.4926" transform="translate(637.7974 115.7881)" id="Fill-29" fill="#0091C8" stroke="none" />
    <path d="M28.8491 94.5153C29.7798 101.166 29.9307 143.776 28.4347 165.42L19.8943 165.42C15.3086 144.425 10.4062 103.73 9.4967 97.2283C9.48608 97.1433 9.4797 97.0625 9.46908 96.9796C4.36695 74.3913 -0.195419 30.1205 0.00645627 21.2119C0.280581 9.13114 10.1363 -0.209057 19.5182 0.00355855C28.8979 0.2183 34.2508 9.90293 33.9788 21.9837C33.8067 29.5677 28.4071 91.3665 28.8491 94.5153" transform="translate(635.7729 115.7866)" id="Fill-31" fill="#FFBE82" stroke="none" />
    <path d="M13.6866 0L18.2405 0C19.8279 3.67399 23.1811 6.51241 28.3874 6.51241C33.6021 6.51241 36.9575 3.67399 38.5406 0L42.6971 0C46.9471 0 50.4257 3.36145 50.5468 7.61163C50.8635 18.6868 51.5838 40.027 52.8546 59.3239C54.0021 76.7882 58.7685 93.0192 55.5087 97.7797C55.5087 97.7797 11.3385 94.1121 3.68636 85.3289C-2.92877 77.7343 1.12148 62.6322 2.40286 47.2155C3.67786 31.8732 4.96986 16.2204 5.70086 7.34799C6.04298 3.18923 9.51736 0 13.6866 0" transform="translate(613.6157 45.61746)" id="Fill-33" fill="#828291" stroke="none" />
    <path d="M45.1329 25.1503C45.5366 16.1439 43.2055 7.55635 38.9619 0L42.2493 0C46.4993 0 49.9779 3.36358 50.099 7.61163C50.4178 18.6868 51.136 40.027 52.4068 59.3239C53.5543 76.7882 58.3206 93.0192 55.0609 97.7797C55.0609 97.7797 10.8906 94.1142 3.2385 85.3289C1.496 83.3303 0.507875 80.8002 0 77.8916C25.6594 73.8435 43.9599 51.3594 45.1329 25.1503" transform="translate(614.0635 45.61728)" id="Fill-35" fill="#757582" stroke="none" />
    <path d="M0 17.9618L0.524876 18.0787C4.52626 18.9695 8.49152 16.4458 9.3819 12.4423L11.7619 1.72856L3.99288 0L0 17.9618Z" transform="translate(643.2114 17.44891)" id="Fill-37" fill="#41378C" stroke="none" />
    <path d="M0 14.6194L14.6561 14.6194L10.4295 0L0.439875 1.2353L0 14.6194Z" transform="translate(636.27 30.99783)" id="Fill-39" fill="#FAB9AF" stroke="none" />
    <path d="M0.378251 1.23742L10.3679 0L12.3378 6.81432C10.1023 9.33594 6.78301 13.2523 3.14925 13.2523C1.99538 13.2523 0.943501 12.927 0 12.3274L0.378251 1.23742Z" transform="translate(636.3315 30.99677)" id="Fill-41" fill="#FA968C" stroke="none" />
    <path d="M5.29214 27.0978L5.29214 27.0978C11.8733 28.5627 18.3928 24.4125 19.8569 17.8278L22.8085 4.54784L2.37238 0C2.37238 0 0.0688813 10.3671 0.000881218 17.696C-0.0479938 23.1942 1.93888 26.3515 5.29214 27.0978" transform="translate(629.9053 12.90701)" id="Fill-43" fill="#FAB9AF" stroke="none" />
    <path d="M0.38675 0L4.22662 0.854714L3.83987 2.59604L0 1.74345L0.38675 0Z" transform="translate(648.4438 21.93658)" id="Fill-45" fill="#41378C" stroke="none" />
    <path d="M0.190558 4.11664C-0.385319 6.70843 0.388184 9.08334 1.91606 9.42352C3.44607 9.76371 5.88771 6.74457 6.46358 4.15279C7.03946 1.56101 5.5307 0.38099 4.00282 0.0408055C2.47282 -0.299379 0.766436 1.52486 0.190558 4.11664" transform="translate(646.6641 23.3356)" id="Fill-47" fill="#FAB9AF" stroke="none" />
    <path d="M0.0231029 10.0173C-0.0873971 8.25681 0.199478 6.49423 0.862478 4.86134C2.5051 0.804639 7.0441 -0.940934 11.1751 0.498472C11.5959 0.645177 12.0442 0.772746 12.516 0.879054L19.4137 2.40988C23.5596 3.33051 26.1734 7.44036 25.2511 11.5864L24.8941 13.1959L20.8056 15.5687L19.1375 18.473L18.8676 18.4113C17.5522 18.12 16.7044 16.855 16.9084 15.541C17.2484 13.3723 16.171 11.2547 14.029 10.7784L7.90898 9.41556C4.18173 8.58636 1.7996 10.1576 1.18123 12.9471L0.847603 15.3475L0.0231029 10.0173Z" transform="translate(629.6235 8.036774)" id="Fill-49" fill="#41378C" stroke="none" />
    <path d="M0 0L100.846 561.439" transform="translate(649.1929 96.85651)" id="Stroke-51" fill="none" stroke="#5046AF" stroke-width="2.067" stroke-linecap="round" />
    <path d="M100.846 561.439L0 0" transform="translate(565.3423 96.85672)" id="Stroke-53" fill="none" stroke="#5046AF" stroke-width="2.067" stroke-linecap="round" />
    <path d="M0 1.06308L81.9591 1.06308" transform="translate(572.0229 120.8029)" id="Stroke-55" fill="none" stroke="#5046AF" stroke-width="2.067" stroke-linecap="round" />
    <path d="M0 1.06308L83.1024 1.06308" transform="translate(577.4717 158.3691)" id="Stroke-57" fill="none" stroke="#5046AF" stroke-width="2.067" stroke-linecap="round" />
    <path d="M0 1.06308L82.3608 1.06308" transform="translate(585.0464 195.9355)" id="Stroke-59" fill="none" stroke="#5046AF" stroke-width="2.067" stroke-linecap="round" />
    <path d="M0 1.06308L81.8699 1.06308" transform="translate(592.3711 233.5019)" id="Stroke-61" fill="none" stroke="#5046AF" stroke-width="2.067" stroke-linecap="round" />
    <path d="M0 1.06308L82.8176 1.06308" transform="translate(596.8096 271.068)" id="Stroke-63" fill="none" stroke="#5046AF" stroke-width="2.067" stroke-linecap="round" />
    <path d="M0 1.06308L83.9694 1.06308" transform="translate(602.5513 307.9646)" id="Stroke-65" fill="none" stroke="#5046AF" stroke-width="2.067" stroke-linecap="round" />
    <path d="M0 1.06308L82.6816 1.06308" transform="translate(610.9731 346.2008)" id="Stroke-67" fill="none" stroke="#5046AF" stroke-width="2.067" stroke-linecap="round" />
    <path d="M0 1.06308L82.9069 1.06308" transform="translate(617.7217 383.7671)" id="Stroke-69" fill="none" stroke="#5046AF" stroke-width="2.067" stroke-linecap="round" />
    <path d="M0 1.06308L82.909 1.06308" transform="translate(624.3926 419.268)" id="Stroke-71" fill="none" stroke="#5046AF" stroke-width="2.067" stroke-linecap="round" />
    <path d="M0 1.06308L82.909 1.06308" transform="translate(630.062 454.7688)" id="Stroke-73" fill="none" stroke="#5046AF" stroke-width="2.067" stroke-linecap="round" />
    <path d="M0 1.06308L82.909 1.06308" transform="translate(636.5771 490.2696)" id="Stroke-75" fill="none" stroke="#5046AF" stroke-width="2.067" stroke-linecap="round" />
    <path d="M0 1.06308L82.909 1.06308" transform="translate(642.9028 525.7706)" id="Stroke-77" fill="none" stroke="#5046AF" stroke-width="2.067" stroke-linecap="round" />
    <path d="M0 1.06308L82.9069 1.06308" transform="translate(649.0732 561.2715)" id="Stroke-79" fill="none" stroke="#5046AF" stroke-width="2.067" stroke-linecap="round" />
    <path d="M0 1.06308L82.909 1.06308" transform="translate(656.2446 596.7722)" id="Stroke-81" fill="none" stroke="#5046AF" stroke-width="2.067" stroke-linecap="round" />
    <path d="M101.7 0L0 562.716" transform="translate(463.6421 96.85651)" id="Stroke-83" fill="none" stroke="#9F9FFF" stroke-width="2.067" stroke-linecap="round" />
    <path d="M0 562.716L101.7 0" transform="translate(547.4927 96.85587)" id="Stroke-85" fill="none" stroke="#9F9FFF" stroke-width="2.067" stroke-linecap="round" />
    <path d="M81.719 1.06308L0 1.06308" transform="translate(560.7935 120.8029)" id="Stroke-87" fill="none" stroke="#9F9FFF" stroke-width="2.067" stroke-linecap="round" />
    <path d="M83.1024 1.06308L0 1.06308" transform="translate(553.9614 158.3691)" id="Stroke-89" fill="none" stroke="#9F9FFF" stroke-width="2.067" stroke-linecap="round" />
    <path d="M82.3608 1.06308L0 1.06308" transform="translate(547.1284 195.9355)" id="Stroke-91" fill="none" stroke="#9F9FFF" stroke-width="2.067" stroke-linecap="round" />
    <path d="M81.8699 1.06308L0 1.06308" transform="translate(540.2944 233.5019)" id="Stroke-93" fill="none" stroke="#9F9FFF" stroke-width="2.067" stroke-linecap="round" />
    <path d="M82.8176 1.06308L0 1.06308" transform="translate(533.4629 271.068)" id="Stroke-95" fill="none" stroke="#9F9FFF" stroke-width="2.067" stroke-linecap="round" />
    <path d="M83.9694 1.06308L0 1.06308" transform="translate(526.7505 307.9646)" id="Stroke-97" fill="none" stroke="#9F9FFF" stroke-width="2.067" stroke-linecap="round" />
    <path d="M82.6816 1.06308L0 1.06308" transform="translate(519.7969 346.2008)" id="Stroke-99" fill="none" stroke="#9F9FFF" stroke-width="2.067" stroke-linecap="round" />
    <path d="M82.909 1.06308L0 1.06308" transform="translate(513.9048 383.7671)" id="Stroke-101" fill="none" stroke="#9F9FFF" stroke-width="2.067" stroke-linecap="round" />
    <path d="M82.909 1.06308L0 1.06308" transform="translate(507.5234 425.9077)" id="Stroke-103" fill="none" stroke="#9F9FFF" stroke-width="2.067" stroke-linecap="round" />
    <path d="M82.909 1.06308L0 1.06308" transform="translate(497.8779 468.0483)" id="Stroke-105" fill="none" stroke="#9F9FFF" stroke-width="2.067" stroke-linecap="round" />
    <path d="M82.9069 1.06308L0 1.06308" transform="translate(490.6821 510.1891)" id="Stroke-107" fill="none" stroke="#9F9FFF" stroke-width="2.067" stroke-linecap="round" />
    <path d="M82.909 1.06308L0 1.06308" transform="translate(483.8906 552.3297)" id="Stroke-109" fill="none" stroke="#9F9FFF" stroke-width="2.067" stroke-linecap="round" />
    <path d="M82.909 1.06308L0 1.06308" transform="translate(475.061 594.8787)" id="Stroke-111" fill="none" stroke="#9F9FFF" stroke-width="2.067" stroke-linecap="round" />
    <path d="M24.1297 4.76773C24.5972 8.55654 10.9887 13.3553 7.40174 13.7996C3.81262 14.2419 0.523124 11.531 0.0556245 7.74222C-0.411875 3.95554 2.119 0.523931 5.70812 0.0816908C9.29724 -0.362675 23.6622 0.978928 24.1297 4.76773" transform="translate(626.1543 8.445038)" id="Fill-113" fill="#41378C" stroke="none" />
    <path d="M6.61528 18.9634C2.26116 19.7331 -0.645844 23.8918 0.123406 28.2483L7.52478 70.1314L10.3022 69.6403C12.867 64.1463 18.4345 60.181 25.3025 60.2427C31.8029 60.3022 37.7912 64.4439 40.1223 70.5162C43.9218 80.4071 37.7189 90.7508 27.8377 92.4985C22.421 93.4553 17.1638 91.5992 13.5428 87.9868L10.7675 88.478L18.953 134.811C19.7244 139.168 23.8788 142.076 28.2329 141.304L70.0933 133.901L69.5854 131.024C64.0944 128.458 60.1313 122.888 60.195 116.014C60.2524 109.51 64.3919 103.521 70.4609 101.188C80.3464 97.3866 90.6845 103.593 92.4313 113.477C93.3875 118.899 91.5324 124.157 87.922 127.78L88.432 130.657L134.738 122.465C139.092 121.695 141.999 117.538 141.23 113.18L122.4 6.61894C121.629 2.26032 117.474 -0.646128 113.118 0.12354L6.61528 18.9634Z" transform="translate(455.6265 0)" id="Fill-115" fill="#5046AF" stroke="none" />
    <path d="M105.693 13.9848C101.18 20.1401 93.4428 28.2365 84.1778 35.2272C55.843 55.902 25.5193 57.992 0.788543 34.5894C-0.222957 33.6326 -0.267582 32.0359 0.690793 31.0238C1.50892 30.1585 2.79242 29.999 3.78054 30.571L3.89529 30.6369C20.0219 39.9494 34.4634 43.7744 52.6428 36.1309C76.4747 25.8552 93.3854 1.13225 91.6047 3.49228C94.5287 -0.381571 100.035 -1.14911 103.906 1.77648C107.742 4.67442 108.526 10.1174 105.693 13.9848" transform="translate(560.1392 45.92889)" id="Fill-117" fill="#FAB9AF" stroke="none" />
    <path d="M0.048838 17.9987C5.94996 12.7003 13.4533 2.25875 13.4533 2.25875C13.4533 2.25875 17.0106 -1.94678 24.3312 1.11913C30.1771 3.57058 28.9935 10.4806 28.9935 10.4806C28.8511 11.4416 26.8982 22.842 13.4555 32.9243C13.4555 32.9243 -0.941412 18.8874 0.048838 17.9987" transform="translate(638.6929 45.61713)" id="Fill-119" fill="#A5A0AA" stroke="none" />
    <path d="M19.3695 12.4042C17.4336 10.1441 16.9215 2.21359 15.8314 2.21359C15.0494 2.21359 14.9091 4.95208 14.8921 6.48929C14.89 6.67001 14.7838 6.8316 14.6201 6.90389C14.4565 6.9783 14.2653 6.94854 14.1314 6.82947C11.932 4.89255 5.72912 -0.478119 5.08949 0.0342842C4.44137 0.553066 7.73724 4.55874 8.85925 5.88759C8.89325 5.92798 8.89537 5.98539 8.86137 6.02791C8.8295 6.06831 8.77212 6.08107 8.72537 6.05768C6.99137 5.17958 1.33249 2.40495 1.20074 3.59134C1.07536 4.72033 5.99474 7.86066 7.91574 9.04067C7.96462 9.07044 7.98162 9.12997 7.96037 9.181C7.93699 9.23203 7.87962 9.25754 7.82649 9.24266C5.67174 8.60481 0.127611 7.06335 0.00223631 8.06689C-0.125264 9.08957 5.23399 11.3858 7.16137 12.1767C7.21237 12.198 7.23999 12.2512 7.22724 12.3043C7.21449 12.3575 7.16562 12.3936 7.11249 12.3894C5.21062 12.2405 0.306112 11.9237 1.06261 12.6806C1.99549 13.6162 13.8084 17.4794 16.454 17.4794C19.1018 17.4794 19.3695 12.4042 19.3695 12.4042" transform="translate(546.3447 65.2244)" id="Fill-121" fill="#FAB9AF" stroke="none" />
    <path d="M0 689.971L779.977 689.971L779.977 0L0 0L0 689.971Z" transform="translate(0 0.1318665)" id="Clip-124" fill="none" stroke="none" />
    <g clip-path="url(#mask_1)">
      <path d="M0 341.165L560.403 341.165L560.403 0L0 0L0 341.165Z" transform="translate(104.8003 211.7239)" id="Fill-123" fill="#5046AF" stroke="none" />
      <path d="M0 290.065L503.553 290.065L503.553 0L0 0L0 290.065Z" transform="translate(133.2266 237.2718)" id="Fill-125" fill="#FFFFFF" stroke="none" />
      <path d="M0 184.982L129.032 184.982L129.032 0L0 0L0 184.982Z" transform="translate(166.0151 310.2498)" id="Stroke-126" fill="none" stroke="#827DDC" stroke-width="0.988" />
      <path d="M0 184.982L129.032 184.982L129.032 0L0 0L0 184.982Z" transform="translate(324.145 310.2498)" id="Stroke-127" fill="none" stroke="#827DDC" stroke-width="0.988" />
      <path d="M0 184.982L129.032 184.982L129.032 0L0 0L0 184.982Z" transform="translate(482.2749 310.2498)" id="Stroke-128" fill="none" stroke="#827DDC" stroke-width="0.988" />
      <path d="M0 4.7243L503.553 4.7243L503.553 0L0 0L0 4.7243Z" transform="translate(133.2266 237.2718)" id="Fill-129" fill="#A5C8CD" stroke="none" />
      <path d="M23.7495 0C23.7495 0 12.2469 13.2459 10.1346 15.3551C8.39002 17.0964 5.91652 17.73 3.54502 18.3976C2.78639 18.6102 1.79827 19.3905 0.963142 20.0475C0.291642 20.5727 -0.0143584 21.3955 0.000516623 22.2481C0.272517 37.1588 13.2435 47.611 13.9363 46.7393C15.1815 45.1638 14.2316 40.7966 11.7518 37.9157C9.25489 35.0178 8.64927 30.9313 9.76277 27.2701C10.6489 24.3572 12.2703 21.7229 14.4696 19.6202L24.472 10.2523L23.7495 0Z" transform="translate(31.54785 603.0253)" id="Fill-130" fill="#FA968C" stroke="none" />
      <path d="M2.76675 5.5365L190.729 5.5365C192.257 5.5365 193.496 4.29695 193.496 2.76825C193.496 1.23955 192.257 0 190.729 0L2.76675 0C1.23887 0 0 1.23955 0 2.76825C0 4.29695 1.23887 5.5365 2.76675 5.5365" transform="translate(26.66455 658.2394)" id="Fill-131" fill="#B4D7DC" stroke="none" />
      <path d="M0.00184574 6.46776L9.15209 21.7654C11.9486 26.4408 12.9771 31.9773 12.0527 37.348C12.0527 37.3501 12.0527 37.3522 12.0527 37.3522C11.53 40.3565 13.7846 43.1226 16.8318 43.1992C26.6812 43.4437 45.7446 43.7987 46.295 42.9015C49.0957 38.326 37.0385 36.2785 27.5695 33.0702C21.1838 30.9058 13.3256 13.6095 8.34459 0L0.879471 4.73069C0.303596 5.11765 -0.0279043 5.77463 0.00184574 6.46776" transform="translate(172.8745 615.3964)" id="Fill-132" fill="#FA968C" stroke="none" />
      <path d="M15.7729 2.00496C19.8189 2.00496 23.9478 1.07583 27.7622 0.321049C28.1999 0.233877 28.6568 0.265769 29.0776 0.4146C33.4912 1.9837 36.1687 4.14174 34.6833 6.56768C34.0862 7.54359 11.6632 7.03969 2.90393 6.80581C1.07431 6.75691 -0.26869 5.09426 0.0458095 3.28703L0.61956 0C5.57081 1.26081 10.6474 2.00496 15.7729 2.00496" transform="translate(184.4854 651.7289)" id="Fill-133" fill="#823264" stroke="none" />
      <path d="M85.9448 0.303991C75.8298 -1.72223 63.7471 6.56764 61.1397 19.5946C59.6416 27.0808 57.4337 54.9695 57.7482 77.7279C57.8672 86.4642 53.6767 94.8668 46.218 99.4083C45.0025 100.148 43.889 100.962 42.92 101.847C37.9283 106.408 14.7148 135.523 0.164965 155.275C-0.289785 158.364 0.16709 162.636 1.89259 164.666C20.5161 150.064 52.0978 122.571 57.4061 117.721C60.3556 115.027 63.6515 111.872 66.3332 108.765C77.7742 101.094 96.3446 42.5209 98.7628 30.4337C101.37 17.4068 96.0599 2.33022 85.9448 0.303991" transform="translate(54.19238 448.8009)" id="Fill-134" fill="#FFAA50" stroke="none" />
      <path d="M31.4712 20.3111C31.4712 31.5287 24.4269 40.6223 15.7356 40.6223C7.04437 40.6223 0 31.5287 0 20.3111C0 9.09356 7.04437 0 15.7356 0C24.4269 0 31.4712 9.09356 31.4712 20.3111" transform="translate(118.0903 344.3291)" id="Fill-135" fill="#9B14AA" stroke="none" />
      <path d="M69.4422 21.3704C69.1914 10.1273 60.0943 0.678655 48.8743 0.036557C38.9208 -0.531126 30.3273 5.57093 27.11 14.2839C25.9817 17.3371 22.9918 19.325 19.7384 19.2761C18.3869 19.257 16.9972 19.3803 15.5819 19.6716C7.35817 21.3576 0.974671 28.3059 0.107671 36.6595C-0.672204 44.1968 2.85105 50.9558 8.5163 54.8126C10.9303 56.4583 12.3052 59.184 12.7047 62.0798C14.5598 75.4789 26.787 85.3208 40.7355 83.7942C52.6674 82.4867 62.215 72.6638 63.2308 60.7C63.8534 53.3605 61.3353 46.6291 56.9068 41.6305C64.4527 38.0607 69.6419 30.3215 69.4422 21.3704" transform="translate(60.60938 345.3656)" id="Fill-136" fill="#9B14AA" stroke="none" />
      <path d="M83.2086 44.5742C79.2349 43.7237 75.5778 45.4183 73.5378 48.3268L71.179 48.3268L71.179 26.5742C71.179 22.5855 67.9469 19.3537 63.9604 19.3537L39.6313 19.3537L39.6313 16.9363C42.5404 14.8952 44.234 11.2361 43.384 7.26018C42.6509 3.83494 39.9011 1.03055 36.4884 0.250248C30.3939 -1.14026 24.9879 3.45436 24.9879 9.31404C24.9879 12.4693 26.5583 15.2524 28.9574 16.9363L28.9574 19.3537L7.2165 19.3537C3.23 19.3537 0 22.5855 0 26.5742L0 48.3268L1.61713 48.3268C3.65713 45.4183 7.31213 43.7237 11.2859 44.5742C14.7093 45.3056 17.5121 48.0568 18.292 51.4714C19.6839 57.5692 15.0918 62.9803 9.23525 62.9803C6.08175 62.9803 3.30013 61.4069 1.61713 59.0065L0 59.0065L0 83.3488C0 87.3375 3.23 90.5714 7.2165 90.5714L28.9574 90.5714L28.9574 88.896C26.0504 86.8549 24.3568 83.1958 25.2068 79.2198C25.9399 75.7946 28.6896 72.9902 32.1024 72.2099C38.1969 70.8194 43.6029 75.414 43.6029 81.2737C43.6029 84.4289 42.0304 87.2121 39.6313 88.896L39.6313 90.5714L63.9604 90.5714C67.9469 90.5714 71.179 87.3375 71.179 83.3488L71.179 59.0065L73.5378 59.0065C75.2208 61.4069 78.0024 62.9803 81.1559 62.9803C87.0124 62.9803 91.6045 57.5714 90.2148 51.4735C89.4349 48.0589 86.632 45.3077 83.2086 44.5742" transform="translate(185.5288 325.0007)" id="Fill-137" fill="#05CDFF" stroke="none" />
      <path d="M0 4.94565C0 4.94565 8.85488 10.5204 7.7775 18.0321C7.7775 18.0321 12.5056 14.6813 13.5766 3.14054C14.3161 -4.85805 0 4.94565 0 4.94565" transform="translate(133.8257 332.721)" id="Fill-138" fill="#9B14AA" stroke="none" />
      <path d="M19.3268 21.3299C19.1504 24.8615 19.3416 28.4738 19.8474 31.9819C20.3276 35.4731 21.15 38.9408 22.3549 41.8154C22.9456 43.2527 23.6193 44.4859 24.2461 45.4235C24.8858 46.359 25.3703 46.6567 25.281 46.7608C25.1556 46.8501 25.0749 47.1372 25.893 46.8565C26.2436 46.8055 26.7515 46.393 27.2679 46.1124C27.7928 45.6829 28.358 45.2385 28.9169 44.69C31.1694 42.4107 33.3602 39.2576 35.2281 35.8515C37.1321 32.4603 38.864 28.831 40.4875 25.1102C43.6856 17.6432 46.4843 9.83592 49.0768 1.93088L49.0853 1.90962C49.5613 0.453205 51.1295 -0.337724 52.583 0.138534C53.8729 0.561639 54.6421 1.84371 54.4679 3.14279C53.348 11.5241 51.9561 19.9118 49.8226 28.2803C49.3381 30.381 48.6709 32.4646 48.0929 34.5673C47.3895 36.6531 46.7478 38.7495 45.9063 40.8395C44.3167 45.0259 42.383 49.2229 39.3591 53.4263C38.5814 54.4745 37.6698 55.5185 36.7093 56.5475C35.5936 57.5681 34.563 58.5886 33.0309 59.4774L31.9493 60.1407C31.5625 60.3512 31.1014 60.5277 30.6721 60.7105C29.7775 61.0571 28.9573 61.4441 27.899 61.6057C25.9185 62.0628 23.6766 62.0628 21.6451 61.6248C17.4908 60.7127 14.4669 58.4079 12.3334 56.2499C10.2148 54.0408 8.59975 51.7488 7.30563 49.4589C2.35013 40.2825 0.461003 30.9805 0.0126276 21.3299L0.0105026 21.298C-0.235997 15.9614 3.8865 11.4327 9.22238 11.186C14.5561 10.9394 19.0803 15.0641 19.3289 20.4008C19.3416 20.7091 19.3416 21.028 19.3268 21.3299" transform="translate(135.686 362.1031)" id="Fill-139" fill="#FAB9AF" stroke="none" />
      <path d="M39.301 49.0546C42.8434 38.3728 49.9706 15.7548 49.3608 8.36216C48.9698 3.62722 45.0151 0 40.2658 0L9.44901 0C4.34051 0 0.160636 4.05245 0.0118863 9.16372C-0.249489 18.0936 3.86239 38.4175 6.17651 49.0546L39.301 49.0546Z" transform="translate(104.4351 373.2961)" id="Fill-140" fill="#FAB9AF" stroke="none" />
      <path d="M42.3687 22.1796C45.9132 34.9833 74.7261 126 64.7832 128.755C54.8424 131.508 0.731449 42.6459 0.0408243 29.3787C-0.613676 16.794 6.67507 3.16111 16.6179 0.405617C26.5587 -2.34988 38.8242 9.37586 42.3687 22.1796" transform="translate(95.29248 448.3953)" id="Fill-141" fill="#FAB9AF" stroke="none" />
      <path d="M86.9217 170.623C87.2893 170.192 87.3743 169.584 87.181 169.05C79.4778 147.714 69.1376 120.686 66.9318 115.581C66.6811 114.997 66.4133 114.427 66.1328 113.872C62.3716 86.889 45.0634 31.9173 42.3689 22.1796C38.8245 9.37586 26.5589 -2.34988 16.6161 0.405617C6.67532 3.15899 -0.615556 16.794 0.0410693 29.3787C0.472444 37.6835 21.8308 75.6013 40.1887 102.134C44.0541 107.719 46.4808 114.131 47.6623 120.822C48.4783 125.449 49.7831 130.063 51.2408 133.437C53.4126 138.463 66.1456 157.641 77.5207 173.906C77.848 174.376 78.4026 174.652 78.9742 174.595C81.9917 174.287 84.8435 173.064 86.9217 170.623" transform="translate(95.29297 448.3957)" id="Fill-142" fill="#FAC855" stroke="none" />
      <path d="M8.5765 62.5961C10.1702 58.1184 10.6505 53.3261 9.98112 48.6188C8.42562 37.6925 5.70775 17.107 5.9585 8.36854C6.09237 3.69738 9.91737 0 14.5881 0L19.159 0C20.8994 4.03969 24.5862 7.15876 30.3195 7.15876C36.0442 7.15876 39.7332 4.03969 41.4757 0L45.7661 0C41.1039 9.98867 42.7805 23.1666 50.8024 30.8547C49.3106 36.1276 48.0569 41.4324 47.1197 45.7336C45.849 51.5571 46.41 57.6273 48.7029 63.1298C52.6405 72.5869 55.7621 87.7527 54.8335 93.7634C22.4166 102.957 0 86.6875 0 86.6875L8.5765 62.5961Z" transform="translate(98.50977 373.2954)" id="Fill-143" fill="#39AE96" stroke="none" />
      <path d="M40.8914 29.4515C41.208 28.0015 41.5735 26.409 41.9581 24.7676C37.2937 23.6024 32.7059 22.0716 28.2306 20.1092C18.8041 15.9759 6.766 9.26153 0 0C0.187 2.65982 0.4505 5.58541 0.767125 8.62368C4.09487 16.3884 7.66275 23.8852 14.2099 29.7215C22.0469 36.7102 31.5924 41.3324 41.582 44.3622C40.069 39.5465 39.8097 34.4118 40.8914 29.4515" transform="translate(104.7378 389.5769)" id="Fill-144" fill="#1C9585" stroke="none" />
      <path d="M13.9804 16.7754L0 15.3062L4.42425 0L13.4661 1.12048L13.9804 16.7754Z" transform="translate(119.8452 358.643)" id="Fill-145" fill="#FAB9AF" stroke="none" />
      <path d="M10.4231 1.12048L1.38125 0L0 4.77959C2.02512 7.06308 4.62612 11.9958 7.91562 11.9958C8.95899 11.9958 9.91099 11.7002 10.7652 11.1581L10.4231 1.12048Z" transform="translate(122.8882 358.6426)" id="Fill-146" fill="#FA968C" stroke="none" />
      <path d="M15.5359 29.4961C12.4653 29.4961 9.14388 27.9589 4.57088 23.9596C1.94438 21.6655 0 17.662 0 14.9575L0 0L23.0138 0C23.0138 0 24.7414 7.94331 23.0648 15.8228C21.8068 21.7357 17.9499 29.4961 15.5359 29.4961" transform="translate(118.0874 337.6658)" id="Fill-147" fill="#FAB9AF" stroke="none" />
      <path d="M6.7405 5.28349C6.7405 8.2027 5.34438 10.567 3.62313 10.567C1.89975 10.567 0 6.74203 0 3.82495C0 0.905742 1.89975 0 3.62313 0C5.34438 0 6.7405 2.36428 6.7405 5.28349" transform="translate(115.2485 344.5114)" id="Fill-148" fill="#FAB9AF" stroke="none" />
      <path d="M0 10.984C0 6.31283 3.78462 2.52828 8.45325 2.5304L16.2201 2.53253C18.4429 2.53253 20.5976 1.95209 22.4867 0.878381C25.228 -0.677963 28.6917 -0.159182 30.5617 2.37944C32.5826 5.12218 33.4581 8.79618 28.3326 12.198C25.7847 13.8883 22.0596 12.0152 19.5776 12.8274C19.4246 12.821 19.2886 12.7955 19.1292 12.7955L12.2825 12.7955C9.9025 12.7955 8.0835 14.7409 8.01337 17.1222C7.97087 18.6254 6.73837 19.833 5.22325 19.833L4.91937 19.833L3.82287 16.3185L0 21.4744L0 10.984Z" transform="translate(115.2495 328.4943)" id="Fill-149" fill="#9B14AA" stroke="none" />
      <path d="M9.99622 14.0208C9.99622 14.0208 11.6048 21.9705 9.34172 23.2653C7.0786 24.5623 5.32335 25.0173 3.31523 21.7919C1.3071 18.5686 0.0894782 13.1874 0.00235325 9.81527C-0.0826467 6.44319 2.15923 0.730216 2.8031 0.277346C5.14698 -1.37255 4.66035 4.7529 4.56898 7.72952C4.4776 10.7083 4.67098 14.0803 6.11598 13.7189C7.56097 13.3574 7.30597 7.64022 8.82322 6.6792C10.3426 5.71817 9.99622 14.0208 9.99622 14.0208" transform="translate(180.875 341.9745)" id="Fill-150" fill="#FAB9AF" stroke="none" />
      <path d="M10.0853 0.368492C10.0853 0.368492 2.08468 -0.939093 0.875559 1.37204C-0.331441 3.68317 -0.720316 5.45638 2.57556 7.34228C5.87143 9.22817 11.2923 10.2423 14.6647 10.1998C18.0349 10.1594 23.6556 7.7016 24.0848 7.04036C25.6424 4.63568 19.5437 5.3522 16.5729 5.55631C13.6022 5.76042 10.2277 5.69451 10.5337 4.23597C10.8397 2.77955 16.5581 2.81782 17.4612 1.2636C18.3643 -0.292742 10.0853 0.368492 10.0853 0.368492" transform="translate(215.1235 409.6966)" id="Fill-151" fill="#FAB9AF" stroke="none" />
      <path d="M29.0594 6.31681C28.288 9.73354 29.427 11.6024 18.2325 16.9348C7.038 22.2693 3.49562 19.9901 0 25.7328C0 25.7328 1.52787 16.2204 7.7095 12.9568C13.8932 9.69101 24.616 7.55848 28.0542 0C28.0542 0 29.5864 3.98229 29.0594 6.31681" transform="translate(110.3267 331.0877)" id="Fill-152" fill="#9B14AA" stroke="none" />
      <path d="M19.2135 8.26149C19.2092 8.18069 19.1986 8.10202 19.1774 8.02548L19.2326 8.1892L19.3325 8.56553C19.4706 8.90358 19.6109 9.25015 19.7299 9.59884C20.0486 10.3175 20.3908 11.0978 20.8115 11.8504C21.3215 12.5925 21.6976 13.3876 22.2714 14.1212C22.8621 14.8504 23.4635 15.5712 24.0139 16.343C25.4398 17.6952 26.6297 19.2494 28.3638 20.4422L30.7926 22.3728L33.5445 24.0418C40.9331 28.562 49.9091 31.4961 59.189 33.7668C61.5393 34.2516 63.9362 34.6279 66.3184 35.0702C68.709 35.4784 71.0869 36.0078 73.5476 36.163L80.8937 36.888L84.5828 37.3047L88.3057 37.4685L95.7815 37.8001C98.2805 37.9298 100.782 38.0319 103.296 37.9766C108.321 37.9787 113.359 37.9086 118.44 37.9872L118.595 37.9894C120.125 38.0128 121.347 39.2714 121.322 40.8023C121.303 42.1226 120.361 43.2112 119.122 43.4727C114.093 44.5294 109.022 45.4394 103.939 46.4217C101.404 46.9787 98.8288 47.2105 96.2511 47.5082L88.4991 48.3884L84.6104 48.8264L80.6834 48.9943L72.8039 49.2261C70.1753 49.3877 67.519 49.1644 64.8585 49.0518C62.2001 48.9072 59.5311 48.8242 56.8558 48.618C46.1627 47.4125 35.2296 45.1141 24.7682 39.8349L20.8859 37.7555C19.6321 36.9433 18.3996 36.0588 17.1608 35.1977C14.6256 33.5946 12.3944 31.3324 10.0909 29.2509C9.02413 28.0624 8.00625 26.8249 6.97988 25.596C5.97475 24.3437 5.1205 22.8958 4.211 21.5351C3.35463 20.0999 2.59388 18.5733 1.87563 16.983L0.930001 14.4507L0.522001 12.9901L0.326501 12.2353L0.103376 11.0659C-0.670124 5.78452 2.98063 0.877352 8.257 0.103432C13.5334 -0.670488 18.44 2.98224 19.2135 8.26149" transform="translate(100.8105 373.7044)" id="Fill-153" fill="#FAB9AF" stroke="none" />
      <path d="M0.0425204 2.40455C0.0425204 2.40455 0.46752 13.9134 10.5188 19.4414C10.5188 19.4414 6.09027 10.7433 6.39202 5.05586C6.69377 -0.633724 -0.620479 -1.52671 0.0425204 2.40455" transform="translate(137.1909 335.6365)" id="Fill-154" fill="#9B14AA" stroke="none" />
      <path d="M0.149941 5.16415C-0.228309 4.22226 0.128691 3.15068 0.999941 2.6319C1.71182 2.20879 3.62007 1.0309 5.05657 0.14642C5.67919 -0.236288 6.46119 0.171934 6.54407 0.899079C7.47482 9.1358 11.2063 16.6007 18.2082 20.1599C20.0357 22.5986 20.2949 26.768 19.3089 28.0139C19.0773 28.3073 15.7984 27.223 13.0487 24.0699C0.834191 10.0713 0.149941 5.16415 0.149941 5.16415" transform="translate(26.59375 622.6704)" id="Fill-155" fill="#823264" stroke="none" />
      <path d="M25.6238 6.00542C25.1393 5.90762 24.6697 5.80982 24.2426 5.71839C23.0951 5.47601 21.6246 5.50153 20.3305 5.60996C18.1566 5.79281 15.9806 5.39734 14.0256 4.43207L5.92295 0.43703C2.49957 -1.24901 -1.16605 2.24639 0.353322 5.74816C0.482947 6.04795 0.723073 6.2882 1.02057 6.42002L10.6065 10.6702C13.386 11.9034 15.8318 13.7786 17.7443 16.1408L20.4622 19.498C26.2401 15.8857 25.4368 9.35411 25.6238 6.00542" transform="translate(743.4272 578.8406)" id="Fill-156" fill="#FAB9AF" stroke="none" />
      <path d="M2.67962 28.6766C3.07062 24.0714 0.985998 16.4448 0 13.8935C2.47137 9.34775 2.55637 4.46611 1.054 0.0734783C2.32262 -0.028577 3.73574 -0.0519647 4.85349 0.186164C6.38774 0.511466 9.9386 1.06001 11.3963 1.34279C12.4248 1.54265 13.1473 2.46115 13.107 3.50934C13.107 3.50934 8.52123 36.7262 7.50336 36.0947C5.73961 34.9998 2.34599 32.6036 2.67962 28.6766" transform="translate(762.8584 584.089)" id="Fill-157" fill="#46738C" stroke="none" />
      <path d="M2.76675 5.5365L120.065 5.5365C121.592 5.5365 122.831 4.29695 122.831 2.76825L122.831 2.76825C122.831 1.23955 121.592 0 120.065 0L2.76675 0C1.23887 0 0 1.23955 0 2.76825L0 2.76825C0 4.29695 1.23887 5.5365 2.76675 5.5365" transform="translate(456.1807 660.5953)" id="Fill-158" fill="#B4D7DC" stroke="none" />
      <path d="M3.04937 6.10419L130.558 6.10419C132.241 6.10419 133.607 4.73707 133.607 3.05103C133.607 1.36712 132.241 0 130.558 0L3.04937 0C1.36425 0 0 1.36712 0 3.05103C0 4.73707 1.36425 6.10419 3.04937 6.10419" transform="translate(647.3706 660.0277)" id="Fill-159" fill="#B4D7DC" stroke="none" />
      <path d="M17.5705 15.9272C14.9971 26.1158 -3.11216 106.27 0.466342 106.344C3.56884 106.408 36.5297 31.5587 39.1031 21.3702C41.6765 11.1838 38.9416 1.7054 32.9958 0.202209C27.0501 -1.30098 20.1438 5.73871 17.5705 15.9272" transform="translate(574.7427 536.0533)" id="Fill-160" fill="#41B5E6" stroke="none" />
      <path d="M40.5052 10.5476C31.7991 21.1656 -7.10543 90.7801 1.13957 97.5477C9.38457 104.317 63.3171 46.6795 72.0232 36.0615C80.7314 25.4434 79.4437 10.3435 71.1987 3.57595C62.9537 -3.19159 49.2113 -0.0703985 40.5052 10.5476" transform="translate(591.4692 460.0419)" id="Fill-161" fill="#41B5E6" stroke="none" />
      <path d="M14.0951 25.6836C14.1228 25.1903 14.1483 24.7098 14.1759 24.2739C14.2481 23.1024 14.0059 21.6524 13.7084 20.3873C13.2111 18.2633 13.2834 16.05 13.9506 13.9727L16.711 5.36819C17.8776 1.7346 13.8826 -1.38235 10.6441 0.635374C10.3679 0.807592 10.1639 1.07974 10.0768 1.39441L7.28026 11.5043C6.47063 14.4362 4.97463 17.1322 2.91975 19.371L0 22.5539C4.41788 27.7417 10.7568 25.9897 14.0951 25.6836" transform="translate(565.6587 627.8494)" id="Fill-162" fill="#FAB9AF" stroke="none" />
      <path d="M6.63285 5.80227C11.242 5.51311 18.4776 2.33239 20.8555 0.982282C25.7132 2.76187 30.5497 2.12828 34.6722 0C34.9591 1.24167 35.1907 2.6343 35.1206 3.77605C35.0229 5.34302 35.0016 8.93622 34.9357 10.4203C34.889 11.4685 34.0857 12.3168 33.0445 12.4337C33.0445 12.4337 -0.468897 12.7633 0.00497844 11.6641C0.831603 9.75691 2.7016 6.0489 6.63285 5.80227" transform="translate(545.0034 648.3477)" id="Fill-163" fill="#46738C" stroke="none" />
      <path d="M40.0711 97.3828C38.4816 103.68 18.802 152.501 8.2195 175.247C5.032 174.031 3.25125 174.131 0 173.108C4.14375 151.746 11.56 104.053 14.0016 93.762C15.0663 79.4232 50.1288 20.3905 58.1995 10.5486C66.9056 -0.0694572 80.648 -3.19278 88.893 3.5769C97.138 10.3444 98.4258 25.4444 89.7175 36.0624C84.0863 42.932 41.1464 93.1262 40.0711 97.3828" transform="translate(573.7744 460.0415)" id="Fill-164" fill="#695A6E" stroke="none" />
      <path d="M33.3986 3.57595C25.1536 -3.19159 11.4112 -0.0703985 2.70512 10.5476C2.00175 11.4045 1.07525 12.6738 0 14.2195C7.86462 29.8765 10.5272 47.1982 10.1129 64.79C20.91 51.829 31.603 39.2571 34.2231 36.0615C42.9292 25.4434 41.6436 10.3435 33.3986 3.57595" transform="translate(629.2695 460.0417)" id="Fill-165" fill="#614C69" stroke="none" />
      <path d="M4.85717 103.818C4.85717 103.818 4.84654 103.809 4.84654 103.809C4.83804 103.795 4.83167 103.775 4.82529 103.763C4.47254 103.089 4.21117 102.413 4.01992 101.734C-1.78771 84.5167 -0.125957 21.9951 1.75679 9.3083C2.25829 5.93622 3.26129 2.81503 4.61279 0L23.1279 10.0822C27.7774 15.3487 33.2705 20.0071 39.5265 23.7853C40.4679 24.353 39.2078 21.8909 40.1704 22.3948C37.5014 38.8448 34.0228 71.4728 32.7138 87.791C32.4163 91.499 34.5179 94.971 37.9455 96.4104C55.2006 103.665 85.9769 117.759 103.128 127.019L102.543 136.735C77.5088 131.486 27.4969 116.609 19.9043 114.391C12.7367 112.299 7.16917 108.181 4.85717 103.818" transform="translate(651.1997 454.0204)" id="Fill-166" fill="#828291" stroke="none" />
      <path d="M87.0028 10.0977C86.9539 11.1544 86.8859 11.652 86.8094 12.3621C86.7308 13.0084 86.6437 13.6505 86.5417 14.2671C86.344 15.5173 86.1082 16.7292 85.8362 17.9305C85.2773 20.3267 84.6419 22.6867 83.7898 24.9829C82.1301 29.5797 79.8692 33.9893 77.0748 38.0673C71.4584 46.219 63.2772 52.6421 54.4053 56.095C49.9895 57.9022 45.4272 58.9887 40.9222 59.635C36.4108 60.377 31.9292 60.4047 27.5262 60.3069C18.718 59.9773 10.2563 58.2743 2.0984 55.9993C0.572648 55.574 -0.317727 53.9922 0.105148 52.4656C0.481273 51.1198 1.75415 50.2672 3.09502 50.3756L3.13327 50.3799C11.2614 51.0305 19.3683 51.0942 27.1203 50.1183C34.8234 49.0106 42.2715 47.0864 48.3448 43.3891C54.452 39.798 59.2205 34.844 62.2614 28.8462C63.8169 25.8781 65.026 22.6931 65.7974 19.372C66.2139 17.7243 66.522 16.0403 66.7473 14.3734C66.8599 13.54 66.9428 12.7044 66.9938 11.8986C67.0235 11.4882 67.0384 11.0992 67.049 10.7143C67.0554 10.3912 67.0597 9.85536 67.0384 9.87662C67.0979 4.36138 71.6157 -0.0610215 77.13 0.000636987C82.6423 0.0601693 87.0644 4.58037 87.0028 10.0977" transform="translate(553.7793 389.8634)" id="Fill-167" fill="#FA968C" stroke="none" />
      <path d="M7.15657e-06 29.3794C1.71063 25.7012 8.34487 11.356 9.16937 7.86274L9.20975 7.6884C9.27562 7.40987 9.35637 7.12922 9.44775 6.85282C11.1881 1.60972 16.8449 -1.22869 22.0851 0.512627C27.3254 2.25395 30.1622 7.9159 28.4219 13.1569C26.7899 18.0747 25.0984 22.1548 23.1094 26.4836C21.7536 29.3475 20.2704 32.1541 18.7234 34.9308C17.0149 33.619 -0.0127428 29.4071 7.15657e-06 29.3794" transform="translate(610.3203 385.0128)" id="Fill-168" fill="#AAC85A" stroke="none" />
      <path d="M12.2016 102.917C20.4721 109.747 54.9969 108.363 67.8086 107.593C71.0301 107.397 73.4589 104.478 72.9256 101.293C71.5613 93.1627 65.9109 79.1683 62.5131 64.634C57.6213 43.6913 52.9548 20.4525 50.5004 7.88478C49.4868 2.70122 44.5356 -0.730391 39.3293 0.132827L7.89843 5.3334C3.05343 6.13496 -0.36782 10.5063 0.0316802 15.4029C0.86043 25.5382 2.29906 43.1513 3.69943 60.4199C5.11893 77.9437 3.37643 95.629 12.2016 102.917" transform="translate(620.1782 379.7403)" id="Fill-169" fill="#FAB9AF" stroke="none" />
      <path d="M7.62337 5.50491L12.7297 4.66083C15.1884 8.48578 19.4766 11.0435 25.3161 10.0783C31.162 9.11087 34.3984 5.30505 35.4927 0.893282L40.1529 0.121488C44.9192 -0.667315 49.4434 2.46451 50.3677 7.20796C52.7754 19.5694 57.5375 43.3611 62.5376 64.7566C65.9886 79.5248 71.6624 93.0961 72.9352 101.348C73.4346 104.582 71.01 107.524 67.746 107.72C54.8685 108.492 20.4775 109.854 12.2261 103.04C3.401 95.7516 5.1435 78.0663 3.72188 60.5425C2.30663 43.0996 0.855251 25.3058 0.0307516 15.2214C-0.355998 10.495 2.94625 6.27883 7.62337 5.50491" transform="translate(620.1543 379.6179)" id="Fill-170" fill="#82BE50" stroke="none" />
      <path d="M5.76513 22.5989L6.35376 22.4309C10.8311 21.1446 13.4194 16.4692 12.1359 11.9894L8.69763 0L0 2.4961L5.76513 22.5989Z" transform="translate(638.7051 345.3625)" id="Fill-171" fill="#CD5014" stroke="none" />
      <path d="M3.71238 19.2438L18.87 18.1318L19.4034 15.9504L10.5273 0L0 4.48618L3.71238 19.2438Z" transform="translate(633.7104 365.8949)" id="Fill-172" fill="#FAB9AF" stroke="none" />
      <path d="M0 4.48405L10.5273 0L14.093 6.4061C12.4398 9.86322 10.4295 13.6967 6.45788 14.8363C5.19988 15.1977 3.78463 15.0936 2.56488 14.7342L0 4.48405Z" transform="translate(633.7109 365.8961)" id="Fill-173" fill="#FA968C" stroke="none" />
      <path d="M17.6226 32.0326L17.6226 32.0326C24.9879 29.9192 29.2443 22.2311 27.132 14.8639L22.8693 0L0 6.56556C0 6.56556 3.32563 18.168 7.23776 25.5202C10.1724 31.0355 13.8678 33.1106 17.6226 32.0326" transform="translate(621.3403 344.8703)" id="Fill-174" fill="#FAB9AF" stroke="none" />
      <path d="M0 1.23317L4.29885 0L4.85773 1.94969L0.558872 3.18286L0 1.23317Z" transform="translate(642.7666 350.2224)" id="Fill-175" fill="#CD5014" stroke="none" />
      <path d="M0.347023 6.32375C1.1779 9.22382 3.23914 11.1756 4.95189 10.6845C6.66251 10.1933 7.45939 5.85174 6.62851 2.95167C5.79764 0.0515988 3.65139 -0.307721 1.94077 0.18342C0.228023 0.674561 -0.483851 3.42368 0.347023 6.32375" transform="translate(643.4409 351.7122)" id="Fill-176" fill="#FAB9AF" stroke="none" />
      <path d="M2.78 18.4738C1.71538 16.7771 1.04388 14.8615 0.81863 12.8692C0.81863 12.8692 -1.17674 6.25903 1.063 4.25194C3.10088 2.42132 7.55913 2.73812 10.2919 2.56164C12.2958 2.43195 18.0099 0.341939 18.0099 0.341939C22.6487 -0.99116 27.4895 1.69205 28.8197 6.33132L29.3361 8.13217L26.5417 12.7225L26.4546 16.5284L26.1507 16.6155C24.6781 17.0386 23.1439 16.2371 22.6381 14.8125C21.7987 12.4631 19.5739 10.9344 17.1769 11.6233L10.3259 13.59C6.15663 14.787 4.63088 17.6488 5.5255 20.77L6.49663 23.3491L2.78 18.4738Z" transform="translate(618.7261 339.5299)" id="Fill-177" fill="#CD5014" stroke="none" />
      <path d="M68.1411 26.3928L66.7513 22.8315C69.1589 19.2021 69.9388 14.565 68.5214 10.1638C66.0394 2.45016 56.9189 -1.9765 49.3348 0.866171C41.6232 3.75561 37.7897 12.3857 40.7753 20.0334C42.5922 24.6833 46.5107 27.8811 51.0157 28.9803L52.4076 32.5437L13.5881 47.716C10.2051 49.0384 8.53483 52.8528 9.85658 56.2376L24.8846 94.7273L22.8191 95.5332C19.1917 93.1221 14.5571 92.3439 10.1583 93.7621C2.44883 96.2454 -1.97542 105.371 0.865701 112.959C3.75358 120.673 12.379 124.511 20.0226 121.523C24.67 119.705 27.8659 115.785 28.9646 111.275L31.0301 110.469L46.0581 148.957C47.3798 152.342 51.1921 154.013 54.5751 152.691L147.244 116.469C150.627 115.147 152.297 111.333 150.978 107.948L114.774 15.2283C113.452 11.8435 109.64 10.1723 106.257 11.4948L68.1411 26.3928Z" transform="translate(496.333 366.6453)" id="Fill-178" fill="#FA735F" stroke="none" />
      <path d="M114.153 9.36641C115.472 34.253 101.543 63.7747 72.2284 70.9653C48.9278 76.7315 23.8571 70.2871 1.74218 60.847C0.286559 60.2261 -0.391316 58.5401 0.231309 57.0837C0.777434 55.7995 2.14806 55.1212 3.46131 55.4019L3.49956 55.4104C34.2696 61.9398 73.5842 66.2219 88.1426 38.1609C95.5206 24.3643 94.1882 7.66336 94.2201 10.0234C94.0522 -2.90787 113.449 -3.53934 114.153 9.36641" transform="translate(560.4971 379.5578)" id="Fill-179" fill="#FAB9AF" stroke="none" />
      <path d="M0.0040627 29.4265C2.33094 18.8808 2.65819 10.3422 2.66456 10.1848L2.66243 10.4846L4.34543 3.77449C4.34543 3.77449 7.55418 -1.60255 16.3304 0.478956C23.3408 2.13948 23.294 10.1083 23.294 10.1083C23.3132 11.2139 25.8483 19.1827 18.976 36.4832C18.976 36.4832 -0.321062 30.9042 0.0040627 29.4265" transform="translate(651.7095 379.2719)" id="Fill-180" fill="#AAC85A" stroke="none" />
      <path d="M19.3696 12.4042C17.4337 10.1441 16.9216 2.21359 15.8314 2.21359C15.0494 2.21359 14.9092 4.95208 14.8922 6.48928C14.8901 6.67001 14.7838 6.8316 14.6202 6.90388C14.4566 6.9783 14.2653 6.94853 14.1314 6.82947C11.9321 4.89254 5.72919 -0.478119 5.08956 0.0342842C4.44144 0.553066 7.73731 4.55874 8.85931 5.88758C8.89331 5.92798 8.89544 5.98539 8.86144 6.02791C8.82956 6.06831 8.77219 6.08106 8.72544 6.05768C6.99144 5.17957 1.33256 2.40494 1.20081 3.59134C1.07544 4.72033 5.99481 7.86065 7.91581 9.04067C7.96469 9.07043 7.98169 9.12997 7.96044 9.18099C7.93706 9.23202 7.87969 9.25754 7.82656 9.24053C5.67181 8.60268 0.127685 7.06335 0.00230992 8.06689C-0.127315 9.08957 5.23406 11.3858 7.16144 12.1767C7.21244 12.198 7.24006 12.2512 7.22731 12.3043C7.21456 12.3575 7.16569 12.3936 7.11256 12.3894C5.21069 12.2405 0.306185 11.9237 1.06269 12.6806C1.99556 13.6161 13.8084 17.4794 16.4541 17.4794C19.1018 17.4794 19.3696 12.4042 19.3696 12.4042" transform="translate(546.2671 422.9846)" id="Fill-181" fill="#FAB9AF" stroke="none" />
      <path d="M0 23.8151L101.558 23.8151L101.558 0L0 0L0 23.8151Z" transform="translate(337.2031 326.128)" id="Fill-182" fill="#C8E6EB" stroke="none" />
      <path d="M0 23.8151L101.558 23.8151L101.558 0L0 0L0 23.8151Z" transform="translate(337.2031 361.8516)" id="Fill-183" fill="#C8E6EB" stroke="none" />
      <path d="M0 23.8151L101.558 23.8151L101.558 0L0 0L0 23.8151Z" transform="translate(337.2031 397.5752)" id="Fill-184" fill="#C8E6EB" stroke="none" />
      <path d="M0 23.8151L101.558 23.8151L101.558 0L0 0L0 23.8151Z" transform="translate(337.2031 433.2989)" id="Fill-185" fill="#C8E6EB" stroke="none" />
      <path d="M0 26.1964L445.906 26.1964L445.906 0L0 0L0 26.1964Z" transform="translate(165.8218 264.208)" id="Fill-186" fill="#C8E6EB" stroke="none" />
      <path d="M148.997 56.5238L12.4971 56.5238C5.59513 56.5238 0 50.9256 0 44.0199L0 12.5039C0 5.59816 5.59513 0 12.4971 0L148.997 0C155.899 0 161.494 5.59816 161.494 12.5039L161.494 44.0199C161.494 50.9256 155.899 56.5238 148.997 56.5238" transform="translate(221.8433 220.3034)" id="Fill-187" fill="#39AE96" stroke="none" />
      <path d="M9.17787 18.3636L0 9.18073L9.17787 0L18.3557 9.18073L9.17787 18.3636Z" transform="translate(340.9629 267.505)" id="Fill-188" fill="#39AE96" stroke="none" />
      <path d="M0 4.43304L119.614 4.43304L119.614 0L0 0L0 4.43304Z" transform="translate(241.0254 234.614)" id="Fill-189" fill="#FFFFFF" stroke="none" />
      <path d="M0 4.43304L119.614 4.43304L119.614 0L0 0L0 4.43304Z" transform="translate(241.0254 246.3611)" id="Fill-190" fill="#FFFFFF" stroke="none" />
      <path d="M0 4.43304L119.614 4.43304L119.614 0L0 0L0 4.43304Z" transform="translate(241.0254 258.1102)" id="Fill-191" fill="#FFFFFF" stroke="none" />
      <path d="M0 12.9844L12.9774 12.9844L12.9774 0L0 0L0 12.9844Z" transform="translate(342.7813 449.0346)" id="Fill-192" fill="#41A0D7" stroke="none" />
      <path d="M101.862 50.9575C101.862 79.1014 79.0585 101.915 50.932 101.915C22.8034 101.915 0 79.1014 0 50.9575C0 22.8136 22.8034 0 50.932 0C79.0585 0 101.862 22.8136 101.862 50.9575" transform="translate(263.8853 440.3996)" id="Fill-193" fill="#05CDFF" stroke="none" />
      <path d="M8.28113 4.14386C8.28113 6.43159 6.426 8.28772 4.1395 8.28772C1.853 8.28772 0 6.43159 0 4.14386C0 1.85613 1.853 0 4.1395 0C6.426 0 8.28113 1.85613 8.28113 4.14386" transform="translate(291.187 487.3665)" id="Fill-194" fill="#FFFFFF" stroke="none" />
      <path d="M8.28113 4.14386C8.28113 6.43159 6.42813 8.28772 4.1395 8.28772C1.853 8.28772 0 6.43159 0 4.14386C0 1.85613 1.853 0 4.1395 0C6.42813 0 8.28113 1.85613 8.28113 4.14386" transform="translate(309.3433 487.3665)" id="Fill-195" fill="#FFFFFF" stroke="none" />
      <path d="M8.28113 4.14386C8.28113 6.43159 6.42813 8.28772 4.1395 8.28772C1.853 8.28772 0 6.43159 0 4.14386C0 1.85613 1.853 0 4.1395 0C6.42813 0 8.28113 1.85613 8.28113 4.14386" transform="translate(327.4995 487.3665)" id="Fill-196" fill="#FFFFFF" stroke="none" />
    </g>
  </g>
</svg>